<svg xmlns="http://www.w3.org/2000/svg" width="127.981" height="130" viewBox="0 0 127.981 130">
  <g id="bin" transform="translate(-3.129 -2)">
    <path id="Path_66" data-name="Path 66" d="M104.683,45.148H37.425L69.381,13.192a2.166,2.166,0,0,0,0-3.064L63.254,4a6.654,6.654,0,0,0-9.193,0L49.112,8.95l3.064,3.064,4.951-4.949a2.217,2.217,0,0,1,3.064,0l4.6,4.6L12.695,63.751l-4.6-4.6a2.166,2.166,0,0,1,0-3.064L47.842,16.347l-3.064-3.064L41.8,16.258,38.74,13.194a6.505,6.505,0,0,0-9.193,0L14.227,28.515a6.507,6.507,0,0,0,0,9.193l3.064,3.064L5.034,53.029a6.5,6.5,0,0,0,0,9.193l6.127,6.129a2.184,2.184,0,0,0,1.534.631,2.161,2.161,0,0,0,1.532-.635L25.749,56.825l9.124,69.34a6.519,6.519,0,0,0,6.444,5.651H90.049a6.523,6.523,0,0,0,6.446-5.653l7.486-56.9-4.3-.565-7.486,56.9a2.176,2.176,0,0,1-2.149,1.887H41.316a2.172,2.172,0,0,1-2.147-1.885L29.612,52.961l3.48-3.48h69.121l-1.389,10.552,4.3.565,1.712-13a2.166,2.166,0,0,0-2.149-2.451ZM17.292,34.642a2.171,2.171,0,0,1,0-3.066l15.32-15.32a2.173,2.173,0,0,1,3.066,0l3.064,3.064L20.358,37.7Z" transform="translate(0 0.185)" fill="#fff"/>
    <path id="Path_67" data-name="Path 67" d="M29,34.5V82.167a6.5,6.5,0,0,0,13,0V34.5a6.5,6.5,0,1,0-13,0Zm8.667,0V82.167a2.167,2.167,0,1,1-4.333,0V34.5a2.167,2.167,0,1,1,4.333,0Z" transform="translate(30.183 30.333)" fill="#fff"/>
    <path id="Path_68" data-name="Path 68" d="M21,34.5V82.167a6.5,6.5,0,0,0,13,0V34.5a6.5,6.5,0,1,0-13,0Zm8.667,0V82.167a2.167,2.167,0,1,1-4.333,0V34.5a2.167,2.167,0,1,1,4.333,0Z" transform="translate(20.85 30.333)" fill="#fff"/>
    <path id="Path_69" data-name="Path 69" d="M37,34.5V82.167a6.5,6.5,0,0,0,13,0V34.5a6.5,6.5,0,1,0-13,0Zm8.667,0V82.167a2.167,2.167,0,1,1-4.333,0V34.5a2.167,2.167,0,1,1,4.333,0Z" transform="translate(39.516 30.333)" fill="#fff"/>
    <path id="Path_70" data-name="Path 70" d="M46.859,14.231l-8.667-2.167a2.167,2.167,0,0,0-2.258.8l-6.5,8.667a2.169,2.169,0,0,0,.765,3.239l8.667,4.333a2.156,2.156,0,0,0,.966.228H50.666a2.167,2.167,0,0,0,2.013-2.97L48.345,15.529a2.174,2.174,0,0,0-1.486-1.3ZM40.344,25l-5.887-2.942,4.08-5.438,6.195,1.549L47.466,25Z" transform="translate(30.184 11.667)" fill="#fff"/>
    <path id="Path_71" data-name="Path 71" d="M59.017,14.356,56.939,10.2a2.167,2.167,0,0,0-2.364-1.155L43.742,11.21A2.163,2.163,0,0,0,42,13.333v4.333a2.163,2.163,0,0,0,.065.527l2.167,8.667a2.166,2.166,0,0,0,2.1,1.64,1.9,1.9,0,0,0,.271-.017l17.333-2.167A2.167,2.167,0,0,0,65.4,22.864Zm-11.048,9.59L46.333,17.4V15.11L53.8,13.617l1.426,2.854a2.171,2.171,0,0,0,.206.332l4.26,5.681Z" transform="translate(45.35 8.167)" fill="#fff"/>
    <path id="Path_72" data-name="Path 72" d="M44,2h4.333V6.333H44Z" transform="translate(47.683)" fill="#fff"/>
    <path id="Path_73" data-name="Path 73" d="M52.8,11.024l2.641,3.436A20.953,20.953,0,0,1,72.3,10.532l.852-4.249A25.262,25.262,0,0,0,52.8,11.024Z" transform="translate(57.954 4.425)" fill="#fff"/>
    <path id="Path_74" data-name="Path 74" d="M57,12h4.333v4.333H57Z" transform="translate(62.85 11.667)" fill="#fff"/>
    <path id="Path_75" data-name="Path 75" d="M48,12.833h4.333a6.508,6.508,0,0,1,6.5-6.5V2A10.846,10.846,0,0,0,48,12.833Z" transform="translate(52.35)" fill="#fff"/>
  </g>
</svg>
