<svg xmlns="http://www.w3.org/2000/svg" width="118.939" height="130" viewBox="0 0 118.939 130">
  <g id="document" transform="translate(-4.105 -2)">
    <path id="Path_60" data-name="Path 60" d="M105.6,131.3a2.147,2.147,0,0,0,.516-1.278l.046,0,6.5-73.667A2.166,2.166,0,0,0,110.5,54H93.167V4.167A2.165,2.165,0,0,0,91,2H15.167A2.165,2.165,0,0,0,13,4.167v32.5h4.333V6.333h71.5V54H45.5v4.333H95.515l6.119,69.333h-84.3V132H104A2.17,2.17,0,0,0,105.6,131.3ZM99.866,58.333h8.268L104,105.185Z" transform="translate(10.378)" fill="#fff"/>
    <path id="Path_61" data-name="Path 61" d="M5.223,21.428a4.333,4.333,0,0,0-1.1,3.337l8.428,84.283A2.167,2.167,0,0,0,14.711,111h8.667v-4.333H16.672L8.439,24.333H36.709l1.562,9.382a4.323,4.323,0,0,0,4.275,3.618h6.832V33H42.546l-1.562-9.382A4.323,4.323,0,0,0,36.709,20H8.439a4.343,4.343,0,0,0-3.215,1.428Z" transform="translate(0 21)" fill="#fff"/>
    <path id="Path_62" data-name="Path 62" d="M87.32,50.566a2.173,2.173,0,0,0,.485-1.757l-2.167-13A2.17,2.17,0,0,0,83.5,34H14.167a2.17,2.17,0,0,0-2.139,2.524l2.167,13a2.17,2.17,0,0,0,2.139,1.809H85.667A2.162,2.162,0,0,0,87.32,50.566ZM18.169,47l-1.443-8.667H81.668L83.111,47Z" transform="translate(9.21 37.333)" fill="#fff"/>
    <path id="Path_63" data-name="Path 63" d="M18,7H76.5v4.333H18Z" transform="translate(16.211 5.833)" fill="#fff"/>
    <path id="Path_64" data-name="Path 64" d="M18,12H76.5v4.333H18Z" transform="translate(16.211 11.667)" fill="#fff"/>
    <path id="Path_65" data-name="Path 65" d="M26,17H67.167v4.333H26Z" transform="translate(25.544 17.5)" fill="#fff"/>
  </g>
</svg>
