<svg xmlns="http://www.w3.org/2000/svg" width="129.941" height="129.95" viewBox="0 0 129.941 129.95">
  <path id="pen" d="M4.242,134a1.93,1.93,0,0,0,.278-.018l17.94-2.242a2.233,2.233,0,0,0,1.307-.639l97.082-97.082,3.557,3.557L110.294,51.686l3.171,3.171,15.7-15.7a2.24,2.24,0,0,0,0-3.171l-5.142-5.142,4.021-4.021A13.342,13.342,0,1,0,109.173,7.959L94.6,22.535l3.171,3.171,7.384-7.384,12.526,12.526L76,72.525,63.474,60,93.283,30.19l-3.171-3.171L4.9,112.232a2.233,2.233,0,0,0-.639,1.307l-2.242,17.94A2.242,2.242,0,0,0,4.242,134ZM108.323,15.15l4.021-4.021a9.071,9.071,0,0,1,12.526,0,8.872,8.872,0,0,1,0,12.526l-4.021,4.021ZM72.83,75.7,26.667,121.859,14.14,109.333,60.3,63.17ZM8.615,114.858l2.355-2.355L23.5,125.03l-2.357,2.357L6.823,129.176Z" transform="translate(-2 -4.05)" fill="#fff"/>
</svg>
